<mxfile host="app.diagrams.net" modified="2022-03-07T00:02:52.238Z" agent="5.0 (X11; Linux x86_64) AppleWebKit/537.36 (KHTML, like Gecko) Chrome/88.0.4324.96 Safari/537.36" etag="dCKxwuOsjl3S2rsXeqkz" version="16.6.6" type="github" pages="3">
  <diagram id="az6V-poKf6UFZpPkEHVl" name="Features list">
    <mxGraphModel dx="782" dy="457" grid="1" gridSize="10" guides="1" tooltips="1" connect="1" arrows="1" fold="1" page="1" pageScale="1" pageWidth="850" pageHeight="1100" math="0" shadow="0">
      <root>
        <mxCell id="wma8inFxhiE8Fe-nxP7S-0" />
        <mxCell id="wma8inFxhiE8Fe-nxP7S-1" parent="wma8inFxhiE8Fe-nxP7S-0" />
        <mxCell id="wma8inFxhiE8Fe-nxP7S-2" value="&lt;h1&gt;Features list&lt;/h1&gt;&lt;div&gt;Two main profiles are CANDIDATES and EMPLOYEERS/RECRUITERS.&lt;/div&gt;&lt;div&gt;&lt;br&gt;&lt;/div&gt;&lt;div&gt;Candidates should be able to:&lt;/div&gt;&lt;div&gt;&lt;ul&gt;&lt;li&gt;Signup and login with email and password / social networks.&lt;/li&gt;&lt;li&gt;Create a profile with &lt;b&gt;education&lt;/b&gt;, &lt;b&gt;skills&lt;/b&gt;, &lt;b&gt;certifications&lt;/b&gt; and professional &lt;b&gt;experience&lt;/b&gt;.&lt;/li&gt;&lt;li&gt;Upload a CV in PDF format.&lt;/li&gt;&lt;li&gt;Upload a video to his profile and to each job application.&lt;/li&gt;&lt;li&gt;Upload documentation (like certifications or ID verifications). &lt;font color=&quot;#ff1783&quot;&gt;We should verify privacy here.&lt;/font&gt;&lt;/li&gt;&lt;li&gt;Set his &lt;b&gt;job preferences&lt;/b&gt;.&lt;/li&gt;&lt;li&gt;Receive alert jobs that match with his preferences.&lt;/li&gt;&lt;li&gt;Find jobs manually.&lt;/li&gt;&lt;li&gt;Apply to jobs in website of in employeers website.&lt;/li&gt;&lt;li&gt;See his application history.&lt;/li&gt;&lt;li&gt;See his hiring proccesses.&lt;/li&gt;&lt;/ul&gt;&lt;div&gt;Employeers should be able to:&lt;/div&gt;&lt;/div&gt;&lt;div&gt;&lt;ul&gt;&lt;li&gt;Create and modify companies profile (if demonstrates belonging to a company trough email verification or documentation).&lt;/li&gt;&lt;li&gt;Create a &quot;provisional&quot;company if does not exists.&lt;/li&gt;&lt;li&gt;Post new jobs (with skills, education, experience requirements and salary range).&lt;/li&gt;&lt;li&gt;Find candidates (&quot;only basic profile information is displayed and employers must pay before they can download CV and see personal information&quot;). &lt;font color=&quot;#ff1783&quot;&gt;If employeers can see name and lastname, they could find people in social networks and contacts them outside of the platform&lt;/font&gt;.&amp;nbsp;&lt;/li&gt;&lt;li&gt;Create &quot;hiring proccesses&quot;.&lt;/li&gt;&lt;li&gt;Set state of candidate hiring proccess.&lt;/li&gt;&lt;li&gt;See a job board to track all candidates proccesses.&lt;/li&gt;&lt;li&gt;Chat with candidates inside platform.&lt;/li&gt;&lt;/ul&gt;&lt;div&gt;Platform should:&lt;/div&gt;&lt;/div&gt;&lt;div&gt;&lt;ul&gt;&lt;li&gt;Use AI to match candidates and jobs.&lt;/li&gt;&lt;li&gt;Offer gamification features (dashboards, leaderboards, points, etc.).&lt;/li&gt;&lt;li&gt;Be prepared to i18n.&lt;/li&gt;&lt;/ul&gt;&lt;/div&gt;" style="text;html=1;strokeColor=none;fillColor=none;spacing=5;spacingTop=-20;whiteSpace=wrap;overflow=hidden;rounded=0;" parent="wma8inFxhiE8Fe-nxP7S-1" vertex="1">
          <mxGeometry x="60" y="30" width="390" height="680" as="geometry" />
        </mxCell>
        <mxCell id="wma8inFxhiE8Fe-nxP7S-3" value="&lt;h1&gt;&lt;span&gt;Company profile&lt;/span&gt;&lt;/h1&gt;&lt;h1&gt;&lt;span style=&quot;font-size: 12px ; font-weight: 400&quot;&gt;Who are we, Values and Culture.&amp;nbsp; Also show company logo and photo&lt;/span&gt;&lt;/h1&gt;&lt;h1&gt;&lt;span style=&quot;font-size: 12px ; font-weight: 400&quot;&gt;We could have a COMPANY ADMIN profile and this person can give access to post and edit jobs to other people. In this way, we can accept &quot;recruiters&quot; that manage more than one company.&lt;/span&gt;&lt;/h1&gt;" style="text;html=1;strokeColor=none;fillColor=none;spacing=5;spacingTop=-20;whiteSpace=wrap;overflow=hidden;rounded=0;fontColor=#FF1783;" parent="wma8inFxhiE8Fe-nxP7S-1" vertex="1">
          <mxGeometry x="520" y="70" width="250" height="290" as="geometry" />
        </mxCell>
        <mxCell id="wma8inFxhiE8Fe-nxP7S-5" value="&lt;h1&gt;&lt;span&gt;Hiring proccess&lt;/span&gt;&lt;/h1&gt;&lt;h1&gt;&lt;span style=&quot;font-size: 12px ; font-weight: 400&quot;&gt;Some steps like QUESTIONS, MEETINGS (HR, technical, etc), CHALLENGE, FINAL MEETING. Employeers can set every step posting a link and a description and set the progress of candidate.&lt;/span&gt;&lt;/h1&gt;&lt;div&gt;&lt;span style=&quot;font-size: 12px ; font-weight: 400&quot;&gt;Also, employeers can add private information in each step (only visible to employeers).&lt;/span&gt;&lt;/div&gt;" style="text;html=1;strokeColor=none;fillColor=none;spacing=5;spacingTop=-20;whiteSpace=wrap;overflow=hidden;rounded=0;fontColor=#FF1783;" parent="wma8inFxhiE8Fe-nxP7S-1" vertex="1">
          <mxGeometry x="520" y="360" width="250" height="290" as="geometry" />
        </mxCell>
      </root>
    </mxGraphModel>
  </diagram>
  <diagram id="tVrFLiv5ROWK4-AYAxV4" name="Tech stack">
    <mxGraphModel dx="782" dy="457" grid="1" gridSize="10" guides="1" tooltips="1" connect="1" arrows="1" fold="1" page="1" pageScale="1" pageWidth="850" pageHeight="1100" math="0" shadow="0">
      <root>
        <mxCell id="CG3YRBzZAY-W-UAhU2fu-0" />
        <mxCell id="CG3YRBzZAY-W-UAhU2fu-1" parent="CG3YRBzZAY-W-UAhU2fu-0" />
        <mxCell id="CG3YRBzZAY-W-UAhU2fu-14" value="" style="shape=image;verticalLabelPosition=bottom;labelBackgroundColor=default;verticalAlign=top;aspect=fixed;imageAspect=0;image=https://res.cloudinary.com/practicaldev/image/fetch/s--Di0ohHZq--/c_imagga_scale,f_auto,fl_progressive,h_1080,q_auto,w_1080/https://thepracticaldev.s3.amazonaws.com/i/0luaazzebv2r8qa3ss6e.png;fontColor=#000000;" parent="CG3YRBzZAY-W-UAhU2fu-1" vertex="1">
          <mxGeometry x="302.72999999999996" y="190" width="80" height="80" as="geometry" />
        </mxCell>
        <mxCell id="CG3YRBzZAY-W-UAhU2fu-2" value="" style="shape=image;verticalLabelPosition=bottom;labelBackgroundColor=default;verticalAlign=top;aspect=fixed;imageAspect=0;image=https://github.com/juanmamaffei/juanmamaffei/raw/main/images/next.png;fontColor=#000000;" parent="CG3YRBzZAY-W-UAhU2fu-1" vertex="1">
          <mxGeometry x="240" y="50" width="70" height="70" as="geometry" />
        </mxCell>
        <mxCell id="CG3YRBzZAY-W-UAhU2fu-3" value="" style="shape=image;verticalLabelPosition=bottom;labelBackgroundColor=default;verticalAlign=top;aspect=fixed;imageAspect=0;image=https://github.com/juanmamaffei/juanmamaffei/raw/main/images/rails.jpeg;fontColor=#000000;" parent="CG3YRBzZAY-W-UAhU2fu-1" vertex="1">
          <mxGeometry x="240" y="184.99999999999997" width="71.47" height="85" as="geometry" />
        </mxCell>
        <mxCell id="CG3YRBzZAY-W-UAhU2fu-4" value="" style="shape=image;verticalLabelPosition=bottom;labelBackgroundColor=default;verticalAlign=top;aspect=fixed;imageAspect=0;image=https://github.com/juanmamaffei/juanmamaffei/raw/main/images/css.png;fontColor=#000000;" parent="CG3YRBzZAY-W-UAhU2fu-1" vertex="1">
          <mxGeometry x="225.53" y="470" width="72" height="72" as="geometry" />
        </mxCell>
        <mxCell id="CG3YRBzZAY-W-UAhU2fu-5" value="" style="shape=image;verticalLabelPosition=bottom;labelBackgroundColor=default;verticalAlign=top;aspect=fixed;imageAspect=0;image=https://github.com/juanmamaffei/juanmamaffei/raw/main/images/html.png;fontColor=#000000;" parent="CG3YRBzZAY-W-UAhU2fu-1" vertex="1">
          <mxGeometry x="280" y="470" width="72" height="72" as="geometry" />
        </mxCell>
        <mxCell id="CG3YRBzZAY-W-UAhU2fu-6" value="" style="shape=image;verticalLabelPosition=bottom;labelBackgroundColor=default;verticalAlign=top;aspect=fixed;imageAspect=0;image=https://github.com/juanmamaffei/juanmamaffei/raw/main/images/js.png;fontColor=#000000;" parent="CG3YRBzZAY-W-UAhU2fu-1" vertex="1">
          <mxGeometry x="336.97" y="470" width="72" height="72" as="geometry" />
        </mxCell>
        <mxCell id="CG3YRBzZAY-W-UAhU2fu-7" value="" style="shape=image;verticalLabelPosition=bottom;labelBackgroundColor=default;verticalAlign=top;aspect=fixed;imageAspect=0;image=https://github.com/juanmamaffei/juanmamaffei/raw/main/images/typescript.png;fontColor=#000000;" parent="CG3YRBzZAY-W-UAhU2fu-1" vertex="1">
          <mxGeometry x="726.47" y="183.45" width="70" height="70" as="geometry" />
        </mxCell>
        <mxCell id="CG3YRBzZAY-W-UAhU2fu-8" value="" style="shape=image;verticalLabelPosition=bottom;labelBackgroundColor=default;verticalAlign=top;aspect=fixed;imageAspect=0;image=https://github.com/juanmamaffei/juanmamaffei/raw/main/images/ruby.png;fontColor=#000000;" parent="CG3YRBzZAY-W-UAhU2fu-1" vertex="1">
          <mxGeometry x="650" y="183.45" width="66.47" height="66.47" as="geometry" />
        </mxCell>
        <mxCell id="CG3YRBzZAY-W-UAhU2fu-10" value="" style="shape=image;verticalLabelPosition=bottom;labelBackgroundColor=default;verticalAlign=top;aspect=fixed;imageAspect=0;image=https://github.com/juanmamaffei/juanmamaffei/raw/main/images/nginx.jpg;fontColor=#000000;" parent="CG3YRBzZAY-W-UAhU2fu-1" vertex="1">
          <mxGeometry x="660" y="51.91" width="60" height="60" as="geometry" />
        </mxCell>
        <mxCell id="CG3YRBzZAY-W-UAhU2fu-11" value="" style="shape=image;verticalLabelPosition=bottom;labelBackgroundColor=default;verticalAlign=top;aspect=fixed;imageAspect=0;image=https://upload.wikimedia.org/wikipedia/commons/thumb/2/29/Postgresql_elephant.svg/1200px-Postgresql_elephant.svg.png;fontColor=#000000;" parent="CG3YRBzZAY-W-UAhU2fu-1" vertex="1">
          <mxGeometry x="236" y="310" width="74" height="76.35" as="geometry" />
        </mxCell>
        <mxCell id="CG3YRBzZAY-W-UAhU2fu-12" value="" style="shape=image;verticalLabelPosition=bottom;labelBackgroundColor=default;verticalAlign=top;aspect=fixed;imageAspect=0;image=https://picodotdev.github.io/blog-bitix/assets/images/logotypes/elastic-elasticsearch.svg;fontColor=#000000;" parent="CG3YRBzZAY-W-UAhU2fu-1" vertex="1">
          <mxGeometry x="700" y="310" width="85" height="85" as="geometry" />
        </mxCell>
        <mxCell id="CG3YRBzZAY-W-UAhU2fu-13" value="" style="shape=image;verticalLabelPosition=bottom;labelBackgroundColor=default;verticalAlign=top;aspect=fixed;imageAspect=0;image=https://www.returngis.net/wp-content/uploads/2019/01/Redis-Cache.png;fontColor=#000000;" parent="CG3YRBzZAY-W-UAhU2fu-1" vertex="1">
          <mxGeometry x="260.5" y="340" width="132.15" height="69.38" as="geometry" />
        </mxCell>
        <mxCell id="CG3YRBzZAY-W-UAhU2fu-15" value="" style="shape=image;verticalLabelPosition=bottom;labelBackgroundColor=default;verticalAlign=top;aspect=fixed;imageAspect=0;image=https://upload.wikimedia.org/wikipedia/commons/thumb/d/d5/Tailwind_CSS_Logo.svg/2048px-Tailwind_CSS_Logo.svg.png;fontColor=#000000;" parent="CG3YRBzZAY-W-UAhU2fu-1" vertex="1">
          <mxGeometry x="260.5" y="93.52999999999997" width="76.47" height="76.47" as="geometry" />
        </mxCell>
        <mxCell id="CG3YRBzZAY-W-UAhU2fu-16" value="&lt;h1&gt;Frontend&lt;/h1&gt;&lt;p&gt;Next JS (used by companies like Netflix, Uber, Starbucks, or Twitch) with Tailwind styles.&lt;/p&gt;" style="text;html=1;strokeColor=none;fillColor=none;spacing=5;spacingTop=-20;whiteSpace=wrap;overflow=hidden;rounded=0;fontColor=#000000;" parent="CG3YRBzZAY-W-UAhU2fu-1" vertex="1">
          <mxGeometry x="40" y="50" width="190" height="120" as="geometry" />
        </mxCell>
        <mxCell id="CG3YRBzZAY-W-UAhU2fu-17" value="&lt;h1&gt;Backend&lt;/h1&gt;&lt;p&gt;Ruby on Rails (used by companies like Airbnb, Shopify, Github, Scribd, Slideshare, Soundcloud or Twitch) and Sidekiq for background jobs.&lt;/p&gt;" style="text;html=1;strokeColor=none;fillColor=none;spacing=5;spacingTop=-20;whiteSpace=wrap;overflow=hidden;rounded=0;fontColor=#000000;" parent="CG3YRBzZAY-W-UAhU2fu-1" vertex="1">
          <mxGeometry x="40" y="160" width="190" height="120" as="geometry" />
        </mxCell>
        <mxCell id="CG3YRBzZAY-W-UAhU2fu-18" style="edgeStyle=orthogonalEdgeStyle;rounded=0;orthogonalLoop=1;jettySize=auto;html=1;exitX=0.5;exitY=1;exitDx=0;exitDy=0;fontColor=#000000;" parent="CG3YRBzZAY-W-UAhU2fu-1" source="CG3YRBzZAY-W-UAhU2fu-17" target="CG3YRBzZAY-W-UAhU2fu-17" edge="1">
          <mxGeometry relative="1" as="geometry" />
        </mxCell>
        <mxCell id="CG3YRBzZAY-W-UAhU2fu-19" value="&lt;h1&gt;Databases&lt;/h1&gt;&lt;p&gt;Mainly, PostgreSQL and Redis for caching and supporting in-memory operations.&lt;/p&gt;" style="text;html=1;strokeColor=none;fillColor=none;spacing=5;spacingTop=-20;whiteSpace=wrap;overflow=hidden;rounded=0;fontColor=#000000;verticalAlign=top;" parent="CG3YRBzZAY-W-UAhU2fu-1" vertex="1">
          <mxGeometry x="40" y="306.45" width="190" height="120" as="geometry" />
        </mxCell>
        <mxCell id="CG3YRBzZAY-W-UAhU2fu-20" value="&lt;h1&gt;SRE&lt;/h1&gt;&lt;p&gt;Debian O.S., Nginx, Passenger, Docker and Kubernetes.&lt;/p&gt;" style="text;html=1;strokeColor=none;fillColor=none;spacing=5;spacingTop=-20;whiteSpace=wrap;overflow=hidden;rounded=0;fontColor=#000000;" parent="CG3YRBzZAY-W-UAhU2fu-1" vertex="1">
          <mxGeometry x="450" y="50" width="190" height="120" as="geometry" />
        </mxCell>
        <mxCell id="CG3YRBzZAY-W-UAhU2fu-21" value="&lt;h1&gt;Languages&lt;/h1&gt;&lt;p&gt;Mainly, Typescript and Ruby&lt;/p&gt;" style="text;html=1;strokeColor=none;fillColor=none;spacing=5;spacingTop=-20;whiteSpace=wrap;overflow=hidden;rounded=0;fontColor=#000000;" parent="CG3YRBzZAY-W-UAhU2fu-1" vertex="1">
          <mxGeometry x="450" y="160" width="190" height="120" as="geometry" />
        </mxCell>
        <mxCell id="CG3YRBzZAY-W-UAhU2fu-22" value="&lt;h1&gt;Third Party services&lt;/h1&gt;&lt;p&gt;AI capabilities provided by Elastic Search and ML models programmed by this specific application.&lt;/p&gt;&lt;p&gt;New Relic for infraestructure monitoring, logging and error tracking.&lt;/p&gt;" style="text;html=1;strokeColor=none;fillColor=none;spacing=5;spacingTop=-20;whiteSpace=wrap;overflow=hidden;rounded=0;fontColor=#000000;verticalAlign=top;" parent="CG3YRBzZAY-W-UAhU2fu-1" vertex="1">
          <mxGeometry x="450" y="306.45" width="250" height="153.55" as="geometry" />
        </mxCell>
        <mxCell id="CG3YRBzZAY-W-UAhU2fu-23" value="&lt;h1&gt;Platforms&lt;/h1&gt;&lt;p&gt;At the moment, web application with mobile-first design.&lt;/p&gt;&lt;p&gt;Extensible to desktop and mobile apps.&lt;/p&gt;" style="text;html=1;strokeColor=none;fillColor=none;spacing=5;spacingTop=-20;whiteSpace=wrap;overflow=hidden;rounded=0;fontColor=#000000;verticalAlign=top;" parent="CG3YRBzZAY-W-UAhU2fu-1" vertex="1">
          <mxGeometry x="40.00000000000003" y="440" width="190" height="120" as="geometry" />
        </mxCell>
        <mxCell id="8jNurFmrzfqzcDd_BC4P-1" value="" style="shape=image;verticalLabelPosition=bottom;labelBackgroundColor=default;verticalAlign=top;aspect=fixed;imageAspect=0;image=https://aprendolinux.com/wp-content/uploads/2021/04/lfVWBmiW_400x400.png;" parent="CG3YRBzZAY-W-UAhU2fu-1" vertex="1">
          <mxGeometry x="720" y="81.91" width="60" height="60" as="geometry" />
        </mxCell>
        <mxCell id="CG3YRBzZAY-W-UAhU2fu-9" value="" style="shape=image;verticalLabelPosition=bottom;labelBackgroundColor=default;verticalAlign=top;aspect=fixed;imageAspect=0;image=https://github.com/juanmamaffei/juanmamaffei/raw/main/images/debian.png;fontColor=#000000;" parent="CG3YRBzZAY-W-UAhU2fu-1" vertex="1">
          <mxGeometry x="720" y="50" width="50" height="61.91" as="geometry" />
        </mxCell>
        <mxCell id="8jNurFmrzfqzcDd_BC4P-2" value="" style="shape=image;verticalLabelPosition=bottom;labelBackgroundColor=default;verticalAlign=top;aspect=fixed;imageAspect=0;image=https://www.seaq.co/wp-content/uploads/2020/02/kubernetes.png;" parent="CG3YRBzZAY-W-UAhU2fu-1" vertex="1">
          <mxGeometry x="671.24" y="86.66" width="52" height="50.5" as="geometry" />
        </mxCell>
      </root>
    </mxGraphModel>
  </diagram>
  <diagram id="Gl6cm3CjxUoD6tbG21cp" name="Simplified models">
    <mxGraphModel dx="1955" dy="1143" grid="1" gridSize="10" guides="1" tooltips="1" connect="1" arrows="1" fold="1" page="1" pageScale="1" pageWidth="850" pageHeight="1100" math="0" shadow="0">
      <root>
        <mxCell id="0" />
        <mxCell id="1" parent="0" />
        <mxCell id="MJH7I0GWXEqatYXciMCY-16" value="" style="rounded=0;whiteSpace=wrap;html=1;" vertex="1" parent="1">
          <mxGeometry x="190" y="500" width="370" height="220" as="geometry" />
        </mxCell>
        <mxCell id="MJH7I0GWXEqatYXciMCY-5" style="edgeStyle=orthogonalEdgeStyle;rounded=0;orthogonalLoop=1;jettySize=auto;html=1;" edge="1" parent="1" source="nM5VpkxA22-n7niZtrPk-1" target="W9cnWLtxeKIsDedGclDt-4">
          <mxGeometry relative="1" as="geometry" />
        </mxCell>
        <mxCell id="MJH7I0GWXEqatYXciMCY-17" style="edgeStyle=orthogonalEdgeStyle;rounded=0;orthogonalLoop=1;jettySize=auto;html=1;entryX=0.25;entryY=0;entryDx=0;entryDy=0;" edge="1" parent="1" source="nM5VpkxA22-n7niZtrPk-1" target="MJH7I0GWXEqatYXciMCY-16">
          <mxGeometry relative="1" as="geometry" />
        </mxCell>
        <mxCell id="nM5VpkxA22-n7niZtrPk-1" value="Candidates" style="swimlane;fontStyle=1;align=center;verticalAlign=top;childLayout=stackLayout;horizontal=1;startSize=26;horizontalStack=0;resizeParent=1;resizeParentMax=0;resizeLast=0;collapsible=1;marginBottom=0;" parent="1" vertex="1">
          <mxGeometry x="255" y="270" width="160" height="86" as="geometry" />
        </mxCell>
        <mxCell id="nM5VpkxA22-n7niZtrPk-2" value="+ field: type" style="text;strokeColor=none;fillColor=none;align=left;verticalAlign=top;spacingLeft=4;spacingRight=4;overflow=hidden;rotatable=0;points=[[0,0.5],[1,0.5]];portConstraint=eastwest;" parent="nM5VpkxA22-n7niZtrPk-1" vertex="1">
          <mxGeometry y="26" width="160" height="26" as="geometry" />
        </mxCell>
        <mxCell id="nM5VpkxA22-n7niZtrPk-3" value="" style="line;strokeWidth=1;fillColor=none;align=left;verticalAlign=middle;spacingTop=-1;spacingLeft=3;spacingRight=3;rotatable=0;labelPosition=right;points=[];portConstraint=eastwest;" parent="nM5VpkxA22-n7niZtrPk-1" vertex="1">
          <mxGeometry y="52" width="160" height="8" as="geometry" />
        </mxCell>
        <mxCell id="nM5VpkxA22-n7niZtrPk-4" value="+ method(type): type" style="text;strokeColor=none;fillColor=none;align=left;verticalAlign=top;spacingLeft=4;spacingRight=4;overflow=hidden;rotatable=0;points=[[0,0.5],[1,0.5]];portConstraint=eastwest;" parent="nM5VpkxA22-n7niZtrPk-1" vertex="1">
          <mxGeometry y="60" width="160" height="26" as="geometry" />
        </mxCell>
        <mxCell id="MJH7I0GWXEqatYXciMCY-18" style="edgeStyle=orthogonalEdgeStyle;rounded=0;orthogonalLoop=1;jettySize=auto;html=1;entryX=0.112;entryY=-0.02;entryDx=0;entryDy=0;entryPerimeter=0;" edge="1" parent="1" source="nM5VpkxA22-n7niZtrPk-5" target="MJH7I0GWXEqatYXciMCY-16">
          <mxGeometry relative="1" as="geometry" />
        </mxCell>
        <mxCell id="nM5VpkxA22-n7niZtrPk-5" value="Jobs" style="swimlane;fontStyle=1;align=center;verticalAlign=top;childLayout=stackLayout;horizontal=1;startSize=26;horizontalStack=0;resizeParent=1;resizeParentMax=0;resizeLast=0;collapsible=1;marginBottom=0;" parent="1" vertex="1">
          <mxGeometry x="160" y="120" width="160" height="86" as="geometry" />
        </mxCell>
        <mxCell id="nM5VpkxA22-n7niZtrPk-6" value="+ field: type" style="text;strokeColor=none;fillColor=none;align=left;verticalAlign=top;spacingLeft=4;spacingRight=4;overflow=hidden;rotatable=0;points=[[0,0.5],[1,0.5]];portConstraint=eastwest;" parent="nM5VpkxA22-n7niZtrPk-5" vertex="1">
          <mxGeometry y="26" width="160" height="26" as="geometry" />
        </mxCell>
        <mxCell id="nM5VpkxA22-n7niZtrPk-7" value="" style="line;strokeWidth=1;fillColor=none;align=left;verticalAlign=middle;spacingTop=-1;spacingLeft=3;spacingRight=3;rotatable=0;labelPosition=right;points=[];portConstraint=eastwest;" parent="nM5VpkxA22-n7niZtrPk-5" vertex="1">
          <mxGeometry y="52" width="160" height="8" as="geometry" />
        </mxCell>
        <mxCell id="nM5VpkxA22-n7niZtrPk-8" value="+ method(type): type" style="text;strokeColor=none;fillColor=none;align=left;verticalAlign=top;spacingLeft=4;spacingRight=4;overflow=hidden;rotatable=0;points=[[0,0.5],[1,0.5]];portConstraint=eastwest;" parent="nM5VpkxA22-n7niZtrPk-5" vertex="1">
          <mxGeometry y="60" width="160" height="26" as="geometry" />
        </mxCell>
        <mxCell id="W9cnWLtxeKIsDedGclDt-1" value="Applications" style="swimlane;fontStyle=1;align=center;verticalAlign=top;childLayout=stackLayout;horizontal=1;startSize=26;horizontalStack=0;resizeParent=1;resizeParentMax=0;resizeLast=0;collapsible=1;marginBottom=0;" parent="1" vertex="1">
          <mxGeometry x="460" y="110" width="160" height="86" as="geometry" />
        </mxCell>
        <mxCell id="W9cnWLtxeKIsDedGclDt-2" value="+ field: type" style="text;strokeColor=none;fillColor=none;align=left;verticalAlign=top;spacingLeft=4;spacingRight=4;overflow=hidden;rotatable=0;points=[[0,0.5],[1,0.5]];portConstraint=eastwest;" parent="W9cnWLtxeKIsDedGclDt-1" vertex="1">
          <mxGeometry y="26" width="160" height="26" as="geometry" />
        </mxCell>
        <mxCell id="W9cnWLtxeKIsDedGclDt-3" value="" style="line;strokeWidth=1;fillColor=none;align=left;verticalAlign=middle;spacingTop=-1;spacingLeft=3;spacingRight=3;rotatable=0;labelPosition=right;points=[];portConstraint=eastwest;" parent="W9cnWLtxeKIsDedGclDt-1" vertex="1">
          <mxGeometry y="52" width="160" height="8" as="geometry" />
        </mxCell>
        <mxCell id="W9cnWLtxeKIsDedGclDt-4" value="+ method(type): type" style="text;strokeColor=none;fillColor=none;align=left;verticalAlign=top;spacingLeft=4;spacingRight=4;overflow=hidden;rotatable=0;points=[[0,0.5],[1,0.5]];portConstraint=eastwest;" parent="W9cnWLtxeKIsDedGclDt-1" vertex="1">
          <mxGeometry y="60" width="160" height="26" as="geometry" />
        </mxCell>
        <mxCell id="W9cnWLtxeKIsDedGclDt-5" value="Messages (chat)" style="swimlane;fontStyle=1;align=center;verticalAlign=top;childLayout=stackLayout;horizontal=1;startSize=26;horizontalStack=0;resizeParent=1;resizeParentMax=0;resizeLast=0;collapsible=1;marginBottom=0;" parent="1" vertex="1">
          <mxGeometry x="660" y="240" width="160" height="86" as="geometry" />
        </mxCell>
        <mxCell id="W9cnWLtxeKIsDedGclDt-6" value="+ field: type" style="text;strokeColor=none;fillColor=none;align=left;verticalAlign=top;spacingLeft=4;spacingRight=4;overflow=hidden;rotatable=0;points=[[0,0.5],[1,0.5]];portConstraint=eastwest;" parent="W9cnWLtxeKIsDedGclDt-5" vertex="1">
          <mxGeometry y="26" width="160" height="26" as="geometry" />
        </mxCell>
        <mxCell id="W9cnWLtxeKIsDedGclDt-7" value="" style="line;strokeWidth=1;fillColor=none;align=left;verticalAlign=middle;spacingTop=-1;spacingLeft=3;spacingRight=3;rotatable=0;labelPosition=right;points=[];portConstraint=eastwest;" parent="W9cnWLtxeKIsDedGclDt-5" vertex="1">
          <mxGeometry y="52" width="160" height="8" as="geometry" />
        </mxCell>
        <mxCell id="W9cnWLtxeKIsDedGclDt-8" value="+ method(type): type" style="text;strokeColor=none;fillColor=none;align=left;verticalAlign=top;spacingLeft=4;spacingRight=4;overflow=hidden;rotatable=0;points=[[0,0.5],[1,0.5]];portConstraint=eastwest;" parent="W9cnWLtxeKIsDedGclDt-5" vertex="1">
          <mxGeometry y="60" width="160" height="26" as="geometry" />
        </mxCell>
        <mxCell id="MJH7I0GWXEqatYXciMCY-24" style="edgeStyle=orthogonalEdgeStyle;rounded=0;orthogonalLoop=1;jettySize=auto;html=1;entryX=0.5;entryY=0;entryDx=0;entryDy=0;" edge="1" parent="1" source="NBEKH3k1gL48RE9r-JH_-1" target="MJH7I0GWXEqatYXciMCY-19">
          <mxGeometry relative="1" as="geometry" />
        </mxCell>
        <mxCell id="MJH7I0GWXEqatYXciMCY-26" style="edgeStyle=orthogonalEdgeStyle;rounded=0;orthogonalLoop=1;jettySize=auto;html=1;" edge="1" parent="1" source="NBEKH3k1gL48RE9r-JH_-1" target="W9cnWLtxeKIsDedGclDt-6">
          <mxGeometry relative="1" as="geometry" />
        </mxCell>
        <mxCell id="NBEKH3k1gL48RE9r-JH_-1" value="Users" style="swimlane;fontStyle=1;align=center;verticalAlign=top;childLayout=stackLayout;horizontal=1;startSize=26;horizontalStack=0;resizeParent=1;resizeParentMax=0;resizeLast=0;collapsible=1;marginBottom=0;" parent="1" vertex="1">
          <mxGeometry x="460" y="240" width="160" height="86" as="geometry" />
        </mxCell>
        <mxCell id="NBEKH3k1gL48RE9r-JH_-2" value="+ field: type" style="text;strokeColor=none;fillColor=none;align=left;verticalAlign=top;spacingLeft=4;spacingRight=4;overflow=hidden;rotatable=0;points=[[0,0.5],[1,0.5]];portConstraint=eastwest;" parent="NBEKH3k1gL48RE9r-JH_-1" vertex="1">
          <mxGeometry y="26" width="160" height="26" as="geometry" />
        </mxCell>
        <mxCell id="NBEKH3k1gL48RE9r-JH_-3" value="" style="line;strokeWidth=1;fillColor=none;align=left;verticalAlign=middle;spacingTop=-1;spacingLeft=3;spacingRight=3;rotatable=0;labelPosition=right;points=[];portConstraint=eastwest;" parent="NBEKH3k1gL48RE9r-JH_-1" vertex="1">
          <mxGeometry y="52" width="160" height="8" as="geometry" />
        </mxCell>
        <mxCell id="NBEKH3k1gL48RE9r-JH_-4" value="+ method(type): type" style="text;strokeColor=none;fillColor=none;align=left;verticalAlign=top;spacingLeft=4;spacingRight=4;overflow=hidden;rotatable=0;points=[[0,0.5],[1,0.5]];portConstraint=eastwest;" parent="NBEKH3k1gL48RE9r-JH_-1" vertex="1">
          <mxGeometry y="60" width="160" height="26" as="geometry" />
        </mxCell>
        <mxCell id="MJH7I0GWXEqatYXciMCY-2" style="edgeStyle=orthogonalEdgeStyle;rounded=0;orthogonalLoop=1;jettySize=auto;html=1;entryX=0;entryY=0.5;entryDx=0;entryDy=0;" edge="1" parent="1" source="NBEKH3k1gL48RE9r-JH_-5" target="nM5VpkxA22-n7niZtrPk-6">
          <mxGeometry relative="1" as="geometry" />
        </mxCell>
        <mxCell id="NBEKH3k1gL48RE9r-JH_-5" value="Companies" style="swimlane;fontStyle=1;align=center;verticalAlign=top;childLayout=stackLayout;horizontal=1;startSize=26;horizontalStack=0;resizeParent=1;resizeParentMax=0;resizeLast=0;collapsible=1;marginBottom=0;" parent="1" vertex="1">
          <mxGeometry x="30" y="320" width="160" height="86" as="geometry" />
        </mxCell>
        <mxCell id="NBEKH3k1gL48RE9r-JH_-6" value="+ field: type" style="text;strokeColor=none;fillColor=none;align=left;verticalAlign=top;spacingLeft=4;spacingRight=4;overflow=hidden;rotatable=0;points=[[0,0.5],[1,0.5]];portConstraint=eastwest;" parent="NBEKH3k1gL48RE9r-JH_-5" vertex="1">
          <mxGeometry y="26" width="160" height="26" as="geometry" />
        </mxCell>
        <mxCell id="NBEKH3k1gL48RE9r-JH_-7" value="" style="line;strokeWidth=1;fillColor=none;align=left;verticalAlign=middle;spacingTop=-1;spacingLeft=3;spacingRight=3;rotatable=0;labelPosition=right;points=[];portConstraint=eastwest;" parent="NBEKH3k1gL48RE9r-JH_-5" vertex="1">
          <mxGeometry y="52" width="160" height="8" as="geometry" />
        </mxCell>
        <mxCell id="NBEKH3k1gL48RE9r-JH_-8" value="+ method(type): type" style="text;strokeColor=none;fillColor=none;align=left;verticalAlign=top;spacingLeft=4;spacingRight=4;overflow=hidden;rotatable=0;points=[[0,0.5],[1,0.5]];portConstraint=eastwest;" parent="NBEKH3k1gL48RE9r-JH_-5" vertex="1">
          <mxGeometry y="60" width="160" height="26" as="geometry" />
        </mxCell>
        <mxCell id="YntGzT9NAkh_xNpxRW6D-1" value="Skills" style="swimlane;fontStyle=1;align=center;verticalAlign=top;childLayout=stackLayout;horizontal=1;startSize=26;horizontalStack=0;resizeParent=1;resizeParentMax=0;resizeLast=0;collapsible=1;marginBottom=0;" parent="1" vertex="1">
          <mxGeometry x="220" y="520" width="160" height="86" as="geometry" />
        </mxCell>
        <mxCell id="YntGzT9NAkh_xNpxRW6D-2" value="+ field: type" style="text;strokeColor=none;fillColor=none;align=left;verticalAlign=top;spacingLeft=4;spacingRight=4;overflow=hidden;rotatable=0;points=[[0,0.5],[1,0.5]];portConstraint=eastwest;" parent="YntGzT9NAkh_xNpxRW6D-1" vertex="1">
          <mxGeometry y="26" width="160" height="26" as="geometry" />
        </mxCell>
        <mxCell id="YntGzT9NAkh_xNpxRW6D-3" value="" style="line;strokeWidth=1;fillColor=none;align=left;verticalAlign=middle;spacingTop=-1;spacingLeft=3;spacingRight=3;rotatable=0;labelPosition=right;points=[];portConstraint=eastwest;" parent="YntGzT9NAkh_xNpxRW6D-1" vertex="1">
          <mxGeometry y="52" width="160" height="8" as="geometry" />
        </mxCell>
        <mxCell id="YntGzT9NAkh_xNpxRW6D-4" value="+ method(type): type" style="text;strokeColor=none;fillColor=none;align=left;verticalAlign=top;spacingLeft=4;spacingRight=4;overflow=hidden;rotatable=0;points=[[0,0.5],[1,0.5]];portConstraint=eastwest;" parent="YntGzT9NAkh_xNpxRW6D-1" vertex="1">
          <mxGeometry y="60" width="160" height="26" as="geometry" />
        </mxCell>
        <mxCell id="YntGzT9NAkh_xNpxRW6D-5" value="Experience" style="swimlane;fontStyle=1;align=center;verticalAlign=top;childLayout=stackLayout;horizontal=1;startSize=26;horizontalStack=0;resizeParent=1;resizeParentMax=0;resizeLast=0;collapsible=1;marginBottom=0;" parent="1" vertex="1">
          <mxGeometry x="390" y="520" width="160" height="86" as="geometry" />
        </mxCell>
        <mxCell id="YntGzT9NAkh_xNpxRW6D-6" value="+ field: type" style="text;strokeColor=none;fillColor=none;align=left;verticalAlign=top;spacingLeft=4;spacingRight=4;overflow=hidden;rotatable=0;points=[[0,0.5],[1,0.5]];portConstraint=eastwest;" parent="YntGzT9NAkh_xNpxRW6D-5" vertex="1">
          <mxGeometry y="26" width="160" height="26" as="geometry" />
        </mxCell>
        <mxCell id="YntGzT9NAkh_xNpxRW6D-7" value="" style="line;strokeWidth=1;fillColor=none;align=left;verticalAlign=middle;spacingTop=-1;spacingLeft=3;spacingRight=3;rotatable=0;labelPosition=right;points=[];portConstraint=eastwest;" parent="YntGzT9NAkh_xNpxRW6D-5" vertex="1">
          <mxGeometry y="52" width="160" height="8" as="geometry" />
        </mxCell>
        <mxCell id="YntGzT9NAkh_xNpxRW6D-8" value="+ method(type): type" style="text;strokeColor=none;fillColor=none;align=left;verticalAlign=top;spacingLeft=4;spacingRight=4;overflow=hidden;rotatable=0;points=[[0,0.5],[1,0.5]];portConstraint=eastwest;" parent="YntGzT9NAkh_xNpxRW6D-5" vertex="1">
          <mxGeometry y="60" width="160" height="26" as="geometry" />
        </mxCell>
        <mxCell id="MJH7I0GWXEqatYXciMCY-3" style="edgeStyle=orthogonalEdgeStyle;rounded=0;orthogonalLoop=1;jettySize=auto;html=1;entryX=0;entryY=0.5;entryDx=0;entryDy=0;" edge="1" parent="1" target="W9cnWLtxeKIsDedGclDt-2">
          <mxGeometry relative="1" as="geometry">
            <mxPoint x="320" y="159" as="sourcePoint" />
          </mxGeometry>
        </mxCell>
        <mxCell id="MJH7I0GWXEqatYXciMCY-6" value="Hiring_process" style="swimlane;fontStyle=1;align=center;verticalAlign=top;childLayout=stackLayout;horizontal=1;startSize=26;horizontalStack=0;resizeParent=1;resizeParentMax=0;resizeLast=0;collapsible=1;marginBottom=0;" vertex="1" parent="1">
          <mxGeometry x="660" y="106" width="160" height="86" as="geometry" />
        </mxCell>
        <mxCell id="MJH7I0GWXEqatYXciMCY-7" value="+ field: type" style="text;strokeColor=none;fillColor=none;align=left;verticalAlign=top;spacingLeft=4;spacingRight=4;overflow=hidden;rotatable=0;points=[[0,0.5],[1,0.5]];portConstraint=eastwest;" vertex="1" parent="MJH7I0GWXEqatYXciMCY-6">
          <mxGeometry y="26" width="160" height="26" as="geometry" />
        </mxCell>
        <mxCell id="MJH7I0GWXEqatYXciMCY-8" value="" style="line;strokeWidth=1;fillColor=none;align=left;verticalAlign=middle;spacingTop=-1;spacingLeft=3;spacingRight=3;rotatable=0;labelPosition=right;points=[];portConstraint=eastwest;" vertex="1" parent="MJH7I0GWXEqatYXciMCY-6">
          <mxGeometry y="52" width="160" height="8" as="geometry" />
        </mxCell>
        <mxCell id="MJH7I0GWXEqatYXciMCY-9" value="+ method(type): type" style="text;strokeColor=none;fillColor=none;align=left;verticalAlign=top;spacingLeft=4;spacingRight=4;overflow=hidden;rotatable=0;points=[[0,0.5],[1,0.5]];portConstraint=eastwest;" vertex="1" parent="MJH7I0GWXEqatYXciMCY-6">
          <mxGeometry y="60" width="160" height="26" as="geometry" />
        </mxCell>
        <mxCell id="MJH7I0GWXEqatYXciMCY-10" style="edgeStyle=orthogonalEdgeStyle;rounded=0;orthogonalLoop=1;jettySize=auto;html=1;exitX=1;exitY=0.5;exitDx=0;exitDy=0;entryX=0;entryY=0.5;entryDx=0;entryDy=0;" edge="1" parent="1" source="W9cnWLtxeKIsDedGclDt-2" target="MJH7I0GWXEqatYXciMCY-6">
          <mxGeometry relative="1" as="geometry" />
        </mxCell>
        <mxCell id="MJH7I0GWXEqatYXciMCY-11" value="Certifications" style="swimlane;fontStyle=1;align=center;verticalAlign=top;childLayout=stackLayout;horizontal=1;startSize=26;horizontalStack=0;resizeParent=1;resizeParentMax=0;resizeLast=0;collapsible=1;marginBottom=0;" vertex="1" parent="1">
          <mxGeometry x="220" y="620" width="160" height="86" as="geometry" />
        </mxCell>
        <mxCell id="MJH7I0GWXEqatYXciMCY-12" value="+ field: type" style="text;strokeColor=none;fillColor=none;align=left;verticalAlign=top;spacingLeft=4;spacingRight=4;overflow=hidden;rotatable=0;points=[[0,0.5],[1,0.5]];portConstraint=eastwest;" vertex="1" parent="MJH7I0GWXEqatYXciMCY-11">
          <mxGeometry y="26" width="160" height="26" as="geometry" />
        </mxCell>
        <mxCell id="MJH7I0GWXEqatYXciMCY-13" value="" style="line;strokeWidth=1;fillColor=none;align=left;verticalAlign=middle;spacingTop=-1;spacingLeft=3;spacingRight=3;rotatable=0;labelPosition=right;points=[];portConstraint=eastwest;" vertex="1" parent="MJH7I0GWXEqatYXciMCY-11">
          <mxGeometry y="52" width="160" height="8" as="geometry" />
        </mxCell>
        <mxCell id="MJH7I0GWXEqatYXciMCY-14" value="+ method(type): type" style="text;strokeColor=none;fillColor=none;align=left;verticalAlign=top;spacingLeft=4;spacingRight=4;overflow=hidden;rotatable=0;points=[[0,0.5],[1,0.5]];portConstraint=eastwest;" vertex="1" parent="MJH7I0GWXEqatYXciMCY-11">
          <mxGeometry y="60" width="160" height="26" as="geometry" />
        </mxCell>
        <mxCell id="MJH7I0GWXEqatYXciMCY-19" value="Employeers" style="swimlane;fontStyle=1;align=center;verticalAlign=top;childLayout=stackLayout;horizontal=1;startSize=26;horizontalStack=0;resizeParent=1;resizeParentMax=0;resizeLast=0;collapsible=1;marginBottom=0;" vertex="1" parent="1">
          <mxGeometry x="460" y="370" width="160" height="86" as="geometry" />
        </mxCell>
        <mxCell id="MJH7I0GWXEqatYXciMCY-20" value="+ field: type" style="text;strokeColor=none;fillColor=none;align=left;verticalAlign=top;spacingLeft=4;spacingRight=4;overflow=hidden;rotatable=0;points=[[0,0.5],[1,0.5]];portConstraint=eastwest;" vertex="1" parent="MJH7I0GWXEqatYXciMCY-19">
          <mxGeometry y="26" width="160" height="26" as="geometry" />
        </mxCell>
        <mxCell id="MJH7I0GWXEqatYXciMCY-21" value="" style="line;strokeWidth=1;fillColor=none;align=left;verticalAlign=middle;spacingTop=-1;spacingLeft=3;spacingRight=3;rotatable=0;labelPosition=right;points=[];portConstraint=eastwest;" vertex="1" parent="MJH7I0GWXEqatYXciMCY-19">
          <mxGeometry y="52" width="160" height="8" as="geometry" />
        </mxCell>
        <mxCell id="MJH7I0GWXEqatYXciMCY-22" value="+ method(type): type" style="text;strokeColor=none;fillColor=none;align=left;verticalAlign=top;spacingLeft=4;spacingRight=4;overflow=hidden;rotatable=0;points=[[0,0.5],[1,0.5]];portConstraint=eastwest;" vertex="1" parent="MJH7I0GWXEqatYXciMCY-19">
          <mxGeometry y="60" width="160" height="26" as="geometry" />
        </mxCell>
        <mxCell id="MJH7I0GWXEqatYXciMCY-23" style="edgeStyle=orthogonalEdgeStyle;rounded=0;orthogonalLoop=1;jettySize=auto;html=1;entryX=0;entryY=0.5;entryDx=0;entryDy=0;" edge="1" parent="1" source="nM5VpkxA22-n7niZtrPk-2" target="NBEKH3k1gL48RE9r-JH_-1">
          <mxGeometry relative="1" as="geometry" />
        </mxCell>
      </root>
    </mxGraphModel>
  </diagram>
</mxfile>
